<svg width="4" height="14" viewBox="0 0 4 14" fill="none" xmlns="http://www.w3.org/2000/svg">
<path d="M1.3335 6.99984C1.3335 7.17665 1.40373 7.34622 1.52876 7.47124C1.65378 7.59627 1.82335 7.6665 2.00016 7.6665C2.17697 7.6665 2.34654 7.59627 2.47157 7.47124C2.59659 7.34622 2.66683 7.17665 2.66683 6.99984C2.66683 6.82303 2.59659 6.65346 2.47157 6.52843C2.34654 6.40341 2.17697 6.33317 2.00016 6.33317C1.82335 6.33317 1.65378 6.40341 1.52876 6.52843C1.40373 6.65346 1.3335 6.82303 1.3335 6.99984Z" stroke="white" stroke-width="2" stroke-linecap="round" stroke-linejoin="round"/>
<path d="M1.3335 11.6665C1.3335 11.8433 1.40373 12.0129 1.52876 12.1379C1.65378 12.2629 1.82335 12.3332 2.00016 12.3332C2.17697 12.3332 2.34654 12.2629 2.47157 12.1379C2.59659 12.0129 2.66683 11.8433 2.66683 11.6665C2.66683 11.4897 2.59659 11.3201 2.47157 11.1951C2.34654 11.0701 2.17697 10.9998 2.00016 10.9998C1.82335 10.9998 1.65378 11.0701 1.52876 11.1951C1.40373 11.3201 1.3335 11.4897 1.3335 11.6665Z" stroke="white" stroke-width="2" stroke-linecap="round" stroke-linejoin="round"/>
<path d="M1.3335 2.33317C1.3335 2.50998 1.40373 2.67955 1.52876 2.80457C1.65378 2.9296 1.82335 2.99984 2.00016 2.99984C2.17697 2.99984 2.34654 2.9296 2.47157 2.80457C2.59659 2.67955 2.66683 2.50998 2.66683 2.33317C2.66683 2.15636 2.59659 1.98679 2.47157 1.86177C2.34654 1.73674 2.17697 1.6665 2.00016 1.6665C1.82335 1.6665 1.65378 1.73674 1.52876 1.86177C1.40373 1.98679 1.3335 2.15636 1.3335 2.33317Z" stroke="white" stroke-width="2" stroke-linecap="round" stroke-linejoin="round"/>
</svg>
