<svg xmlns="http://www.w3.org/2000/svg" width="20" height="20" viewBox="0 0 20 20">
  <path id="Icon_awesome-exchange-alt" data-name="Icon awesome-exchange-alt" d="M0,9.536v-.8a1.093,1.093,0,0,1,.937-1.2H15v-2.4c0-1.068,1.012-1.6,1.6-.848l3.125,4a1.448,1.448,0,0,1,0,1.7l-3.125,4c-.587.751-1.6.224-1.6-.848v-2.4H.937A1.093,1.093,0,0,1,0,9.536Zm19.063,7.6H5v-2.4c0-1.066-1.01-1.6-1.6-.848l-3.125,4a1.448,1.448,0,0,0,0,1.7l3.125,4c.587.751,1.6.223,1.6-.848v-2.4H19.063a1.093,1.093,0,0,0,.938-1.2v-.8A1.093,1.093,0,0,0,19.063,17.136Z" transform="translate(-3.936 20) rotate(-90)" fill="#fff"/>
</svg>
