<svg xmlns="http://www.w3.org/2000/svg" xmlns:xlink="http://www.w3.org/1999/xlink" width="25px" height="25px" viewBox="0 0 60 60" version="1.1">
    <!-- Generator: Sketch 51 (57462) - http://www.bohemiancoding.com/sketch -->
    <title>Slice 1</title>
    <desc>Created with Sketch.</desc>
    <defs/>
    <g id="Page-1" stroke="none" stroke-width="1" fill="none" fill-rule="evenodd">
        <g id="Subtract" fill="#ffffff">
            <path d="M30,60 C46.5685,60 60,46.5685 60,30 C60,13.4315 46.5685,1.17422e-06 30,2.62268e-06 C13.4315,4.07115e-06 -4.07115e-06,13.4315 -2.62268e-06,30 L3,30 C3,15.0883 15.0883,3 30,3 C44.9117,3 57,15.0883 57,30 C57,44.9117 44.9117,57 30,57 L30,60 Z" id="Shape"/>
        </g>
        <g id="Subtract-1" transform="translate(10.000000, 10.000000)" fill="#ffffff">
            <path d="M2,20 C2,10.0589 10.0589,2 20,2 L20,0 C8.95431,0 0,8.95431 0,20 C0,31.0457 8.95431,40 20,40 C31.0457,40 40,31.0457 40,20 L38,20 C38,29.9411 29.9411,38 20,38 C10.0589,38 2,29.9411 2,20 Z" id="Shape"/>
        </g>
    </g>
</svg>