<svg width="135" height="38" viewBox="0 0 135 38" fill="none" xmlns="http://www.w3.org/2000/svg">
<g clip-path="url(#clip0_3182_1461)">
<path d="M0.10083 3.9751H13.2734V9.96095H7.87874V15.6327H12.6822V21.323H7.87874V33.8859H0.10083V3.9751Z" fill="white"/>
<path d="M22.9356 3.9751V27.9H27.6652V33.8859H15.1577V3.9751H22.9356Z" fill="white"/>
<path d="M43.9231 3.9751L48.3755 33.8859H40.4128L40.0249 28.5097H37.2352L36.7733 33.8859H28.7183L32.6719 3.9751H43.9231ZM39.8032 23.2074C39.409 19.8203 39.0149 15.6389 38.6208 10.663C37.8325 16.3779 37.3399 20.5593 37.1428 23.2074H39.8032Z" fill="white"/>
<path d="M100.289 3.92188V33.8326H92.5112V3.92188H100.289Z" fill="white"/>
<path d="M103.411 3.92188H116.584V9.90772H111.189V15.5795H115.993V21.2697H111.189V33.8326H103.411V3.92188Z" fill="white"/>
<path d="M134.135 3.92188V9.90772H129.516V33.8326H121.738V9.90772H117.138V3.92188H134.135Z" fill="white"/>
<path d="M57.181 27.0903H51.6145V35.1314L57.181 37.3695V27.0903Z" fill="#F39C11" stroke="#F39C11" stroke-width="0.0473546"/>
<path d="M57.181 0.111816L51.6145 2.34992V24.3073H69.0889C69.3954 24.3073 69.6934 24.4086 69.9365 24.5953C70.1796 24.782 70.3543 25.0437 70.4334 25.3399C70.5125 25.636 70.4916 25.95 70.374 26.233C70.2563 26.5161 70.0485 26.7524 69.7828 26.9053L59.9643 32.5534V37.3698L79.006 26.4159C79.662 26.0643 80.1817 25.5037 80.4827 24.823C80.7836 24.1423 80.8486 23.3806 80.6674 22.6588C80.4861 21.937 80.0689 21.2964 79.4821 20.8387C78.8952 20.381 78.1723 20.1324 77.428 20.1324H59.9643C59.2262 20.1324 58.5182 19.8392 57.9963 19.3172C57.4743 18.7952 57.1811 18.0873 57.1811 17.3492L57.181 0.111816Z" fill="#F39C11" stroke="#F39C11" stroke-width="0.0473546"/>
<path d="M80.8387 4.92819V0.111816L61.7971 11.0656C61.1411 11.4172 60.6214 11.9779 60.3205 12.6585C60.0195 13.3392 59.9545 14.1009 60.1357 14.8227C60.317 15.5446 60.7342 16.1852 61.3211 16.6429C61.9079 17.1006 62.6308 17.3491 63.3751 17.3491H80.8388C81.2043 17.3491 81.5662 17.4211 81.9039 17.561C82.2416 17.7009 82.5484 17.9059 82.8068 18.1643C83.0653 18.4228 83.2703 18.7296 83.4102 19.0673C83.55 19.405 83.622 19.7669 83.622 20.1324V37.3698L89.1885 35.1317V13.1742H71.7142C71.4076 13.1742 71.1097 13.073 70.8666 12.8863C70.6234 12.6996 70.4488 12.4379 70.3697 12.1417C70.2905 11.8456 70.3114 11.5316 70.4291 11.2485C70.5467 10.9655 70.7545 10.7292 71.0202 10.5763L80.8387 4.92819Z" fill="#F39C11" stroke="#F39C11" stroke-width="0.0473546"/>
<path d="M89.1884 2.34987L83.6218 0.111816V10.3022L89.1883 10.3021L89.1884 2.34987Z" fill="#F39C11" stroke="#F39C11" stroke-width="0.0473546"/>
</g>
<defs>
<clipPath id="clip0_3182_1461">
<rect width="134.238" height="37.4396" fill="white"/>
</clipPath>
</defs>
</svg>
