<?xml version="1.0" encoding="UTF-8" standalone="no"?>
<svg
   version="1.1"
   width="256"
   height="256"
   viewBox="0 0 256 256"
   xml:space="preserve"
   id="svg18935"
   sodipodi:docname="placeholder_bluev11.svg"
   inkscape:version="1.2.1 (9c6d41e410, 2022-07-14)"
   inkscape:export-filename="placeholder_bluev11.png"
   inkscape:export-xdpi="96"
   inkscape:export-ydpi="96"
   xmlns:inkscape="http://www.inkscape.org/namespaces/inkscape"
   xmlns:sodipodi="http://sodipodi.sourceforge.net/DTD/sodipodi-0.dtd"
   xmlns="http://www.w3.org/2000/svg"
   xmlns:svg="http://www.w3.org/2000/svg"><defs
   id="defs18939"><rect
     x="67.744782"
     y="59.826561"
     width="269.21952"
     height="188.27771"
     id="rect24236" /></defs><sodipodi:namedview
   id="namedview18937"
   pagecolor="#ffffff"
   bordercolor="#000000"
   borderopacity="0.25"
   inkscape:showpageshadow="2"
   inkscape:pageopacity="0.0"
   inkscape:pagecheckerboard="0"
   inkscape:deskcolor="#d1d1d1"
   showgrid="false"
   inkscape:zoom="0.80371094"
   inkscape:cx="213.38518"
   inkscape:cy="311.05711"
   inkscape:window-width="1920"
   inkscape:window-height="1009"
   inkscape:window-x="1912"
   inkscape:window-y="-8"
   inkscape:window-maximized="1"
   inkscape:current-layer="g18933" />
<g
   style="stroke: none; stroke-width: 0; stroke-dasharray: none; stroke-linecap: butt; stroke-linejoin: miter; stroke-miterlimit: 10; fill: none; fill-rule: nonzero; opacity: 1;"
   transform="translate(1.4065934065934016 1.4065934065934016) scale(2.81 2.81)"
   id="g18933">
	
	
	
	<path
   d="m 45,2.1352313 c -23.633,0 -42.791,19.1580007 -42.791,42.7910007 0,23.633 19.158,42.791 42.791,42.791 23.633,0 42.791,-19.158 42.791,-42.791 C 87.791,21.293232 68.633,2.1352313 45,2.1352313 Z m 0,75.9280007 c -18.301,0 -33.137,-14.836 -33.137,-33.137 0,-18.301 14.836,-33.138 33.137,-33.138 18.301,0 33.137,14.837 33.137,33.138 0,18.301 -14.836,33.137 -33.137,33.137 z"
   style="opacity:1;fill:#feec9a;fill-rule:nonzero;stroke:none;stroke-width:1;stroke-linecap:butt;stroke-linejoin:miter;stroke-miterlimit:10;stroke-dasharray:none"
   stroke-linecap="round"
   id="path18913" />
	<path
   d="m 45,2.1352313 c -23.633,0 -42.791,19.1580007 -42.791,42.7910007 0,23.633 19.158,42.791 42.791,42.791 23.633,0 42.791,-19.158 42.791,-42.791 C 87.791,21.293232 68.633,2.1352313 45,2.1352313 Z m 0,75.9280007 c -18.301,0 -33.137,-14.836 -33.137,-33.137 0,-18.301 14.836,-33.138 33.137,-33.138 18.301,0 33.137,14.837 33.137,33.138 0,18.301 -14.836,33.137 -33.137,33.137 z"
   style="opacity:1;fill:#f39c11;fill-opacity:1;fill-rule:nonzero;stroke:none;stroke-width:1;stroke-linecap:butt;stroke-linejoin:miter;stroke-miterlimit:10;stroke-dasharray:none"
   stroke-linecap="round"
   id="path18915" />
	<path
   d="m 83.422,26.082232 -7.339,7.339 c 1.241,3.352 1.947,6.961 2.035,10.723 l 8.623,-8.623 c -0.742,-3.307 -1.861,-6.47 -3.319,-9.439 z"
   style="opacity:1;fill:#feec9a;fill-rule:nonzero;stroke:none;stroke-width:1;stroke-linecap:butt;stroke-linejoin:miter;stroke-miterlimit:10;stroke-dasharray:none"
   stroke-linecap="round"
   id="path18917" />
	<path
   d="m 44.218,78.044232 c -3.762,-0.087 -7.371,-0.794 -10.723,-2.035 l -7.339,7.339 c 2.969,1.459 6.132,2.578 9.439,3.32 z"
   style="opacity:1;fill:#feec9a;fill-rule:nonzero;stroke:none;stroke-width:1;stroke-linecap:butt;stroke-linejoin:miter;stroke-miterlimit:10;stroke-dasharray:none"
   stroke-linecap="round"
   id="path18919" />
	<path
   d="m 15.236,59.500232 -7.118,7.118 c 3.188,5.408 7.526,10.054 12.685,13.598 l 6.975,-6.975 c -5.382,-3.28 -9.751,-8.053 -12.542,-13.741 z"
   style="opacity:1;fill:#ffffff;fill-opacity:1;fill-rule:nonzero;stroke:none;stroke-width:1;stroke-linecap:butt;stroke-linejoin:miter;stroke-miterlimit:10;stroke-dasharray:none"
   stroke-linecap="round"
   id="path18921" />
	<path
   d="m 66.692,8.0442314 -7.118,7.1180006 c 5.688,2.791 10.461,7.16 13.741,12.541 l 6.975,-6.975 c -3.545,-5.158 -8.19,-9.496 -13.598,-12.6840006 z"
   style="opacity:1;fill:#fdfdfe;fill-opacity:1;fill-rule:nonzero;stroke:none;stroke-width:1;stroke-linecap:butt;stroke-linejoin:miter;stroke-miterlimit:10;stroke-dasharray:none"
   stroke-linecap="round"
   id="path18923" />
	<path
   d="m 49.861,12.147232 c 1.441,0.212 2.849,0.522 4.223,0.913 l 7.565,-7.5650006 c -1.224,-0.517 -2.478,-0.976 -3.756,-1.379 z"
   style="opacity:1;fill:#feec9a;fill-rule:nonzero;stroke:none;stroke-width:1;stroke-linecap:butt;stroke-linejoin:miter;stroke-miterlimit:10;stroke-dasharray:none"
   stroke-linecap="round"
   id="path18925" />
	<path
   d="m 5.569,61.575232 7.565,-7.565 c -0.391,-1.374 -0.701,-2.782 -0.913,-4.223 l -8.031,8.031 c 0.403,1.279 0.862,2.533 1.379,3.757 z"
   style="opacity:1;fill:#feec9a;fill-rule:nonzero;stroke:none;stroke-width:1;stroke-linecap:butt;stroke-linejoin:miter;stroke-miterlimit:10;stroke-dasharray:none"
   stroke-linecap="round"
   id="path18927" />
	
	
<text
   xml:space="preserve"
   transform="matrix(0.3558054,0,0,0.39416366,8.2506974,-7.5313372)"
   id="text24234"
   style="font-size:133.333px;white-space:pre;shape-inside:url(#rect24236);display:inline;fill:#ffffff;fill-opacity:1"><tspan
     x="67.744141"
     y="181.4699"
     id="tspan29525"><tspan
       style="font-family:'Swis721 BlkCn BT';-inkscape-font-specification:'Swis721 BlkCn BT'"
       id="tspan29523">?</tspan></tspan></text></g>
</svg>
